<svg width="189" height="38" viewBox="0 0 189 38" fill="none" xmlns="http://www.w3.org/2000/svg">
<path d="M179.622 22.3998C179.321 22.3998 179.178 22.5912 179.113 22.7378V21.8296H178.808V24.6967C178.808 24.8677 178.808 24.9573 178.767 25.0877H179.052C179.093 25.0266 179.113 24.8637 179.113 24.7904C179.178 24.937 179.321 25.1284 179.622 25.1284C179.997 25.1284 180.156 24.884 180.156 24.3098V23.2143C180.156 22.6401 179.997 22.3998 179.622 22.3998ZM179.85 24.3831C179.85 24.6682 179.769 24.8637 179.512 24.8637C179.227 24.8637 179.113 24.6071 179.113 24.3505V23.1736C179.113 22.917 179.227 22.6645 179.512 22.6645C179.769 22.6645 179.85 22.8559 179.85 23.1451V24.3831ZM181.468 22.4405V24.3505C181.468 24.6071 181.354 24.8637 181.069 24.8637C180.813 24.8637 180.731 24.6682 180.731 24.3831V22.4405H180.426V24.3098C180.426 24.884 180.585 25.1284 180.959 25.1284C181.261 25.1284 181.403 24.937 181.468 24.7904V25.0144C181.468 25.4135 181.387 25.6375 181.016 25.6375H180.515V25.9022H181.028C181.664 25.9022 181.774 25.5804 181.774 25.0144V22.4405H181.468Z" fill="black"/>
<path d="M179.611 30.9317V27.0072H178.705V31.8374H180.426V30.9317H179.611ZM182.326 27.9128V27.0072H180.605V31.8374H182.326V30.9317H181.511V29.8751H182.326V28.9695H181.511V27.9128H182.326ZM183.906 28.9513C183.568 28.6917 183.411 28.5528 183.411 28.2027C183.411 27.9732 183.459 27.8525 183.598 27.8525C183.737 27.8525 183.809 27.9732 183.809 28.4442H184.715C184.715 27.4117 184.359 26.9468 183.598 26.9468C182.837 26.9468 182.505 27.4117 182.505 28.2027C182.505 29.1144 182.97 29.4042 183.411 29.7604C183.809 30.0865 183.87 30.2314 183.87 30.5816C183.87 30.8714 183.834 30.9921 183.664 30.9921C183.495 30.9921 183.411 30.8714 183.411 30.1589H182.505C182.505 31.5536 182.874 31.8978 183.664 31.8978C184.455 31.8978 184.775 31.4329 184.775 30.5816C184.775 29.6698 184.413 29.3378 183.906 28.9513ZM186.36 28.9513C186.022 28.6917 185.865 28.5528 185.865 28.2027C185.865 27.9732 185.913 27.8525 186.052 27.8525C186.191 27.8525 186.264 27.9732 186.264 28.4442H187.169C187.169 27.4117 186.813 26.9468 186.052 26.9468C185.292 26.9468 184.959 27.4117 184.959 28.2027C184.959 29.1144 185.424 29.4042 185.865 29.7604C186.264 30.0865 186.324 30.2314 186.324 30.5816C186.324 30.8714 186.288 30.9921 186.119 30.9921C185.95 30.9921 185.865 30.8714 185.865 30.1589H184.959C184.959 31.5536 185.328 31.8978 186.119 31.8978C186.91 31.8978 187.23 31.4329 187.23 30.5816C187.23 29.6698 186.867 29.3378 186.36 28.9513ZM187.897 31.8978C188.162 31.8978 188.38 31.7106 188.38 31.4208C188.38 31.1189 188.162 30.9317 187.897 30.9317C187.631 30.9317 187.414 31.1189 187.414 31.4208C187.414 31.7106 187.631 31.8978 187.897 31.8978Z" fill="#12142D"/>
<rect opacity="0.8" x="178.365" y="29.2246" width="9.12098" height="0.910519" fill="#F30506"/>
<path d="M48.5864 28.3815V7.10427H44.0529V13.8441C43.5693 12.756 42.5115 11.3355 40.5167 11.3355C37.7362 11.3355 37.2224 13.3605 37.2224 17.622V25.2987C37.2224 29.5602 37.7362 31.5851 40.5167 31.5851C42.5115 31.5851 43.5693 30.1646 44.0529 29.0766C44.0529 29.6206 44.204 30.8295 44.9596 31.2829H48.8886C48.5864 30.3158 48.5864 29.6508 48.5864 28.3815ZM44.0529 25.6009C44.0529 27.0516 43.66 27.3539 42.9044 27.3539C42.1488 27.3539 41.7559 27.0516 41.7559 25.6009V17.3197C41.7559 15.869 42.1488 15.5668 42.9044 15.5668C43.66 15.5668 44.0529 15.869 44.0529 17.3197V25.6009ZM55.1897 11.3355C51.5327 11.3355 49.5077 13.3605 49.5077 18.2264V24.6942C49.5077 29.5602 51.5327 31.5851 55.1897 31.5851C58.8467 31.5851 60.8716 29.5602 60.8716 24.6942V23.576H56.3382V24.6942C56.3382 26.7494 56.187 27.3539 55.1897 27.3539C54.1923 27.3539 54.0412 26.7494 54.0412 24.6942V22.367H60.8716V18.2264C60.8716 13.3605 58.8467 11.3355 55.1897 11.3355ZM56.3382 19.3447H54.0412V18.2264C54.0412 16.1713 54.1923 15.5668 55.1897 15.5668C56.1568 15.5668 56.3382 16.1713 56.3382 18.2264V19.3447ZM69.379 19.8283C67.0216 18.1055 66.3265 17.7429 66.3265 16.7153C66.3265 16.1713 66.5683 15.5668 67.2634 15.5668C67.9585 15.5668 68.3212 16.1713 68.3212 17.9242H72.8547C72.8547 13.6627 71.0715 11.3355 67.2634 11.3355C63.4553 11.3355 61.793 13.6627 61.793 16.7153C61.793 19.9189 63.6971 21.1581 65.5709 22.4577C68.3212 24.3618 68.6234 24.9965 68.6234 25.9032C68.6234 26.7494 68.4421 27.3539 67.5959 27.3539C66.7496 27.3539 66.3265 26.7494 66.3265 24.392H61.793C61.793 29.8624 63.6366 31.5851 67.5959 31.5851C71.5551 31.5851 73.1569 29.2579 73.1569 25.9032C73.1569 22.8506 71.676 21.5208 69.379 19.8283ZM85.7445 28.3815V17.622C85.7445 13.3605 84.052 11.3355 80.0927 11.3355C76.1335 11.3355 74.3805 13.3605 74.3805 17.622V18.2264H78.914V17.622C78.914 16.1713 79.2162 15.5668 80.0927 15.5668C80.9087 15.5668 81.211 15.869 81.211 16.9873C81.1807 20.191 74.0783 19.526 74.0783 26.4774C74.0783 30.0437 75.8614 31.5851 77.8864 31.5851C79.6091 31.5851 80.5158 30.7993 81.211 29.0766C81.211 29.6206 81.3621 30.8295 82.1177 31.2829H86.0467C85.7445 30.3158 85.7445 29.6508 85.7445 28.3815ZM81.211 26.5983C80.9087 26.961 80.4856 27.3539 79.8811 27.3539C79.1256 27.3539 78.6118 26.8401 78.6118 25.6614C78.6118 23.8177 80.274 23.2133 81.211 21.8532V26.5983ZM95.0235 11.3355C93.0287 11.3355 91.9709 12.756 91.4874 13.8441V7.10427H86.9539V31.2829H91.4874V17.3197C91.4874 15.869 91.8803 15.5668 92.6358 15.5668C93.3914 15.5668 93.7843 15.869 93.7843 17.3197V31.2829H98.3178V17.622C98.3178 13.3605 97.804 11.3355 95.0235 11.3355ZM101.506 10.7311C102.745 10.7311 103.773 9.85459 103.773 8.79677C103.773 7.67851 102.745 6.80204 101.506 6.80204C100.267 6.80204 99.2392 7.67851 99.2392 8.79677C99.2392 9.85459 100.267 10.7311 101.506 10.7311ZM99.2392 11.6378V31.2829H103.773V11.6378H99.2392ZM104.677 7.10427V31.2829H109.21V7.10427H104.677ZM116.706 11.6378H112.021L109.21 21.4603L112.021 31.2829H116.706L113.714 21.4603L116.706 11.6378ZM119.583 10.7311C120.822 10.7311 121.85 9.85459 121.85 8.79677C121.85 7.67851 120.822 6.80204 119.583 6.80204C118.344 6.80204 117.316 7.67851 117.316 8.79677C117.316 9.85459 118.344 10.7311 119.583 10.7311ZM117.316 11.6378V31.2829H121.85V11.6378H117.316ZM134.118 28.3815V7.10427H129.585V13.8441C129.101 12.756 128.043 11.3355 126.049 11.3355C123.268 11.3355 122.754 13.3605 122.754 17.622V25.2987C122.754 29.5602 123.268 31.5851 126.049 31.5851C128.043 31.5851 129.101 30.1646 129.585 29.0766C129.585 29.6206 129.736 30.8295 130.491 31.2829H134.42C134.118 30.3158 134.118 29.6508 134.118 28.3815ZM129.585 25.6009C129.585 27.0516 129.192 27.3539 128.436 27.3539C127.681 27.3539 127.288 27.0516 127.288 25.6009V17.3197C127.288 15.869 127.681 15.5668 128.436 15.5668C129.192 15.5668 129.585 15.869 129.585 17.3197V25.6009ZM146.706 28.3815V17.622C146.706 13.3605 145.013 11.3355 141.054 11.3355C137.095 11.3355 135.342 13.3605 135.342 17.622V18.2264H139.875V17.622C139.875 16.1713 140.178 15.5668 141.054 15.5668C141.87 15.5668 142.172 15.869 142.172 16.9873C142.142 20.191 135.04 19.526 135.04 26.4774C135.04 30.0437 136.823 31.5851 138.848 31.5851C140.57 31.5851 141.477 30.7993 142.172 29.0766C142.172 29.6206 142.323 30.8295 143.079 31.2829H147.008C146.706 30.3158 146.706 29.6508 146.706 28.3815ZM142.172 26.5983C141.87 26.961 141.447 27.3539 140.842 27.3539C140.087 27.3539 139.573 26.8401 139.573 25.6614C139.573 23.8177 141.235 23.2133 142.172 21.8532V26.5983ZM155.206 19.8283C152.849 18.1055 152.154 17.7429 152.154 16.7153C152.154 16.1713 152.395 15.5668 153.09 15.5668C153.786 15.5668 154.148 16.1713 154.148 17.9242H158.682C158.682 13.6627 156.899 11.3355 153.09 11.3355C149.282 11.3355 147.62 13.6627 147.62 16.7153C147.62 19.9189 149.524 21.1581 151.398 22.4577C154.148 24.3618 154.45 24.9965 154.45 25.9032C154.45 26.7494 154.269 27.3539 153.423 27.3539C152.577 27.3539 152.154 26.7494 152.154 24.392H147.62C147.62 29.8624 149.464 31.5851 153.423 31.5851C157.382 31.5851 158.984 29.2579 158.984 25.9032C158.984 22.8506 157.503 21.5208 155.206 19.8283ZM167.975 11.3355C165.98 11.3355 164.922 12.756 164.439 13.8441V7.10427H159.905V31.2829H164.439V17.3197C164.439 15.869 164.832 15.5668 165.587 15.5668C166.343 15.5668 166.736 15.869 166.736 17.3197V31.2829H171.269V17.622C171.269 13.3605 170.755 11.3355 167.975 11.3355ZM174.457 10.7311C175.697 10.7311 176.724 9.85459 176.724 8.79677C176.724 7.67851 175.697 6.80204 174.457 6.80204C173.218 6.80204 172.191 7.67851 172.191 8.79677C172.191 9.85459 173.218 10.7311 174.457 10.7311ZM172.191 11.6378V31.2829H176.724V11.6378H172.191Z" fill="#12142D"/>
<path d="M1.87097 22.0758L8.63737 5.83646H24.8767L31.6431 22.0758M1.87097 22.0758L4.57753 32.9021H28.9366L31.6431 22.0758M1.87097 22.0758H31.6431" stroke="#12142D" stroke-width="2.71672"/>
<path d="M3.30383 23.4028L30.2249 23.4028L28.0855 31.6613H5.4076L3.30383 23.4028Z" fill="#12142D"/>
<rect x="12.8358" y="27.9327" width="8.35841" height="1.35824" rx="0.679119" fill="white"/>
<path d="M30.9088 9.55309C30.6674 8.6204 30.1139 6.84357 29.6706 5.7641L27.1397 6.20837C27.6077 7.29314 28.0886 8.92487 28.3672 10.0469L30.9088 9.55309ZM20.7791 10.6292C21.7209 10.8304 22.7266 11.097 23.633 11.3424L24.3212 8.12029C24.5784 8.97863 24.8251 9.88653 25.0097 10.5998L27.576 10.1112C27.3152 9.14844 26.7917 7.35212 26.3679 6.30272L23.837 6.747C23.9185 6.97175 24.0196 7.22658 24.0959 7.47612C23.2568 7.40058 22.354 7.25959 21.536 7.08491L13.679 5.40694C12.8363 5.22697 11.6625 4.89854 10.8463 4.59464L10.0258 8.43638C10.8543 8.56149 12.0546 8.766 12.9221 8.95126L20.7791 10.6292ZM9.12133 11.094C8.35298 10.9299 7.40223 10.6491 6.65505 10.3859L5.81871 14.302C6.52329 14.4006 7.62444 14.5839 8.34322 14.7374L14.8122 16.119C14.2506 18.0205 13.4145 19.6301 12.1408 20.8612C10.853 22.0375 8.81629 23.0797 7.02333 23.3447L10.003 26.6245C12.5019 25.966 14.8639 24.3713 16.0825 22.7915C17.2851 21.2861 18.3229 19.4603 19.0258 17.0188L24.5777 18.2045C25.3213 18.3633 26.357 18.6104 27.0156 18.8029L27.8466 14.9116C27.1262 14.8873 25.8763 14.6722 25.3558 14.5611L9.12133 11.094Z" fill="#F30506" fill-opacity="0.8"/>
<rect x="4.43188" y="20.762" width="23.9188" height="6.79071" fill="#12142D"/>
</svg>
