<svg width="606" height="101" viewBox="0 0 606 101" fill="none" xmlns="http://www.w3.org/2000/svg">
<rect width="1190" height="1684" transform="translate(-98 -172)" fill="white"/>
<path d="M569.696 61.0122C568.494 61.0122 567.925 61.7759 567.665 62.3608V58.7376H566.446V70.1758C566.446 70.8582 566.446 71.2157 566.284 71.7356H567.421C567.584 71.4919 567.665 70.842 567.665 70.5495C567.925 71.1344 568.494 71.8981 569.696 71.8981C571.191 71.8981 571.824 70.9232 571.824 68.6323V64.2617C571.824 61.9708 571.191 61.0122 569.696 61.0122ZM570.606 68.9248C570.606 70.0621 570.281 70.842 569.257 70.842C568.12 70.842 567.665 69.8184 567.665 68.7948V64.0993C567.665 63.0757 568.12 62.0683 569.257 62.0683C570.281 62.0683 570.606 62.8319 570.606 63.9855V68.9248ZM577.061 61.1747V68.7948C577.061 69.8184 576.606 70.842 575.469 70.842C574.445 70.842 574.12 70.0621 574.12 68.9248V61.1747H572.901V68.6323C572.901 70.9232 573.535 71.8981 575.03 71.8981C576.232 71.8981 576.801 71.1344 577.061 70.5495V71.4431C577.061 73.0354 576.736 73.929 575.257 73.929H573.259V74.9851H575.306C577.841 74.9851 578.279 73.7015 578.279 71.4431V61.1747H577.061Z" fill="black"/>
<path d="M570.374 94.4612V79.2547H566.864V97.9704H573.532V94.4612H570.374ZM581.128 82.7639V79.2547H574.46V97.9704H581.128V94.4612H577.97V90.3671H581.128V86.8579H577.97V82.7639H581.128ZM587.484 86.7877C586.174 85.7818 585.566 85.2437 585.566 83.8868C585.566 82.9978 585.753 82.5299 586.291 82.5299C586.829 82.5299 587.11 82.9978 587.11 84.8226H590.619C590.619 80.8221 589.239 79.0207 586.291 79.0207C583.343 79.0207 582.056 80.8221 582.056 83.8868C582.056 87.4194 583.858 88.5423 585.566 89.9226C587.11 91.1859 587.344 91.7474 587.344 93.1043C587.344 94.2273 587.203 94.6951 586.548 94.6951C585.893 94.6951 585.566 94.2273 585.566 91.4667H582.056C582.056 96.8708 583.483 98.2043 586.548 98.2043C589.613 98.2043 590.853 96.403 590.853 93.1043C590.853 89.5717 589.449 88.285 587.484 86.7877ZM597.227 86.7877C595.917 85.7818 595.309 85.2437 595.309 83.8868C595.309 82.9978 595.496 82.5299 596.034 82.5299C596.572 82.5299 596.853 82.9978 596.853 84.8226H600.362C600.362 80.8221 598.982 79.0207 596.034 79.0207C593.087 79.0207 591.8 80.8221 591.8 83.8868C591.8 87.4194 593.601 88.5423 595.309 89.9226C596.853 91.1859 597.087 91.7474 597.087 93.1043C597.087 94.2273 596.947 94.6951 596.292 94.6951C595.637 94.6951 595.309 94.2273 595.309 91.4667H591.8C591.8 96.8708 593.227 98.2043 596.292 98.2043C599.356 98.2043 600.596 96.403 600.596 93.1043C600.596 89.5717 599.193 88.285 597.227 86.7877ZM603.415 98.2043C604.444 98.2043 605.287 97.4791 605.287 96.3562C605.287 95.1864 604.444 94.4612 603.415 94.4612C602.386 94.4612 601.543 95.1864 601.543 96.3562C601.543 97.4791 602.386 98.2043 603.415 98.2043Z" fill="#12142D"/>
<rect opacity="0.8" x="565.796" y="88.0327" width="35.6954" height="3.41479" fill="#F30506"/>
<path d="M45.8641 87.1401V2.25356H27.7775V29.1423C25.8483 24.8015 21.6281 19.1344 13.67 19.1344C2.57684 19.1344 0.527025 27.2131 0.527025 44.2145V74.8412C0.527025 91.8426 2.57684 99.9213 13.67 99.9213C21.6281 99.9213 25.8483 94.2541 27.7775 89.9134C27.7775 92.0838 28.3804 96.9069 31.3948 98.7155H47.0699C45.8641 94.857 45.8641 92.2043 45.8641 87.1401ZM27.7775 76.047C27.7775 81.8347 26.21 83.0404 23.1956 83.0404C20.1811 83.0404 18.6136 81.8347 18.6136 76.047V43.0087C18.6136 37.221 20.1811 36.0152 23.1956 36.0152C26.21 36.0152 27.7775 37.221 27.7775 43.0087V76.047ZM72.2084 19.1344C57.6186 19.1344 49.5399 27.2131 49.5399 46.6261V72.4296C49.5399 91.8426 57.6186 99.9213 72.2084 99.9213C86.7983 99.9213 94.877 91.8426 94.877 72.4296V67.9683H76.7904V72.4296C76.7904 80.6289 76.1875 83.0404 72.2084 83.0404C68.2294 83.0404 67.6265 80.6289 67.6265 72.4296V63.1452H94.877V46.6261C94.877 27.2131 86.7983 19.1344 72.2084 19.1344ZM76.7904 51.0874H67.6265V46.6261C67.6265 38.4268 68.2294 36.0152 72.2084 36.0152C76.0669 36.0152 76.7904 38.4268 76.7904 46.6261V51.0874ZM128.818 53.0167C119.413 46.1437 116.639 44.6968 116.639 40.5972C116.639 38.4268 117.604 36.0152 120.377 36.0152C123.151 36.0152 124.597 38.4268 124.597 45.4203H142.684C142.684 28.4189 135.57 19.1344 120.377 19.1344C105.184 19.1344 98.5527 28.4189 98.5527 40.5972C98.5527 53.3784 106.149 58.3221 113.625 63.5069C124.597 71.1033 125.803 73.6354 125.803 77.2527C125.803 80.6289 125.08 83.0404 121.704 83.0404C118.327 83.0404 116.639 80.6289 116.639 71.2239H98.5527C98.5527 93.0484 105.908 99.9213 121.704 99.9213C137.499 99.9213 143.89 90.6368 143.89 77.2527C143.89 65.0744 137.982 59.769 128.818 53.0167ZM194.108 87.1401V44.2145C194.108 27.2131 187.356 19.1344 171.56 19.1344C155.765 19.1344 148.771 27.2131 148.771 44.2145V46.6261H166.858V44.2145C166.858 38.4268 168.064 36.0152 171.56 36.0152C174.816 36.0152 176.022 37.221 176.022 41.6824C175.901 54.4636 147.566 51.8109 147.566 79.5437C147.566 93.7718 154.68 99.9213 162.758 99.9213C169.631 99.9213 173.249 96.7863 176.022 89.9134C176.022 92.0838 176.625 96.9069 179.639 98.7155H195.314C194.108 94.857 194.108 92.2043 194.108 87.1401ZM176.022 80.026C174.816 81.4729 173.128 83.0404 170.716 83.0404C167.702 83.0404 165.652 80.9906 165.652 76.2881C165.652 68.9329 172.284 66.5213 176.022 61.0954V80.026ZM231.128 19.1344C223.17 19.1344 218.949 24.8015 217.02 29.1423V2.25356H198.933V98.7155H217.02V43.0087C217.02 37.221 218.588 36.0152 221.602 36.0152C224.616 36.0152 226.184 37.221 226.184 43.0087V98.7155H244.271V44.2145C244.271 27.2131 242.221 19.1344 231.128 19.1344ZM256.99 16.7229C261.933 16.7229 266.033 13.2261 266.033 9.0059C266.033 4.54453 261.933 1.04778 256.99 1.04778C252.046 1.04778 247.946 4.54453 247.946 9.0059C247.946 13.2261 252.046 16.7229 256.99 16.7229ZM247.946 20.3402V98.7155H266.033V20.3402H247.946ZM269.641 2.25356V98.7155H287.727V2.25356H269.641ZM317.631 20.3402H298.941L287.727 59.5278L298.941 98.7155H317.631L305.693 59.5278L317.631 20.3402ZM329.11 16.7229C334.054 16.7229 338.153 13.2261 338.153 9.0059C338.153 4.54453 334.054 1.04778 329.11 1.04778C324.166 1.04778 320.067 4.54453 320.067 9.0059C320.067 13.2261 324.166 16.7229 329.11 16.7229ZM320.067 20.3402V98.7155H338.153V20.3402H320.067ZM387.098 87.1401V2.25356H369.012V29.1423C367.082 24.8015 362.862 19.1344 354.904 19.1344C343.811 19.1344 341.761 27.2131 341.761 44.2145V74.8412C341.761 91.8426 343.811 99.9213 354.904 99.9213C362.862 99.9213 367.082 94.2541 369.012 89.9134C369.012 92.0838 369.615 96.9069 372.629 98.7155H388.304C387.098 94.857 387.098 92.2043 387.098 87.1401ZM369.012 76.047C369.012 81.8347 367.444 83.0404 364.43 83.0404C361.415 83.0404 359.848 81.8347 359.848 76.047V43.0087C359.848 37.221 361.415 36.0152 364.43 36.0152C367.444 36.0152 369.012 37.221 369.012 43.0087V76.047ZM437.317 87.1401V44.2145C437.317 27.2131 430.565 19.1344 414.769 19.1344C398.973 19.1344 391.98 27.2131 391.98 44.2145V46.6261H410.066V44.2145C410.066 38.4268 411.272 36.0152 414.769 36.0152C418.025 36.0152 419.23 37.221 419.23 41.6824C419.11 54.4636 390.774 51.8109 390.774 79.5437C390.774 93.7718 397.888 99.9213 405.967 99.9213C412.84 99.9213 416.457 96.7863 419.23 89.9134C419.23 92.0838 419.833 96.9069 422.848 98.7155H438.523C437.317 94.857 437.317 92.2043 437.317 87.1401ZM419.23 80.026C418.025 81.4729 416.336 83.0404 413.925 83.0404C410.91 83.0404 408.861 80.9906 408.861 76.2881C408.861 68.9329 415.492 66.5213 419.23 61.0954V80.026ZM471.229 53.0167C461.824 46.1437 459.051 44.6968 459.051 40.5972C459.051 38.4268 460.016 36.0152 462.789 36.0152C465.562 36.0152 467.009 38.4268 467.009 45.4203H485.096C485.096 28.4189 477.982 19.1344 462.789 19.1344C447.596 19.1344 440.964 28.4189 440.964 40.5972C440.964 53.3784 448.561 58.3221 456.037 63.5069C467.009 71.1033 468.215 73.6354 468.215 77.2527C468.215 80.6289 467.491 83.0404 464.115 83.0404C460.739 83.0404 459.051 80.6289 459.051 71.2239H440.964C440.964 93.0484 448.32 99.9213 464.115 99.9213C479.911 99.9213 486.302 90.6368 486.302 77.2527C486.302 65.0744 480.393 59.769 471.229 53.0167ZM522.171 19.1344C514.213 19.1344 509.993 24.8015 508.064 29.1423V2.25356H489.977V98.7155H508.064V43.0087C508.064 37.221 509.631 36.0152 512.646 36.0152C515.66 36.0152 517.228 37.221 517.228 43.0087V98.7155H535.314V44.2145C535.314 27.2131 533.265 19.1344 522.171 19.1344ZM548.033 16.7229C552.977 16.7229 557.077 13.2261 557.077 9.0059C557.077 4.54453 552.977 1.04778 548.033 1.04778C543.09 1.04778 538.99 4.54453 538.99 9.0059C538.99 13.2261 543.09 16.7229 548.033 16.7229ZM538.99 20.3402V98.7155H557.077V20.3402H538.99Z" fill="#0D0D0D"/>
</svg>
