<svg width="137" height="23" viewBox="0 0 137 23" fill="none" xmlns="http://www.w3.org/2000/svg">
<path d="M127.666 13.8993C127.535 13.8993 127.473 13.9827 127.444 14.0465V13.6511H127.311V14.8992C127.311 14.9737 127.311 15.0127 127.293 15.0694H127.418C127.435 15.0428 127.444 14.9719 127.444 14.94C127.473 15.0038 127.535 15.0872 127.666 15.0872C127.829 15.0872 127.898 14.9808 127.898 14.7308V14.2539C127.898 14.0039 127.829 13.8993 127.666 13.8993ZM127.765 14.7627C127.765 14.8868 127.73 14.9719 127.618 14.9719C127.494 14.9719 127.444 14.8602 127.444 14.7485V14.2362C127.444 14.1245 127.494 14.0146 127.618 14.0146C127.73 14.0146 127.765 14.0979 127.765 14.2238V14.7627Z" fill="#C6C6C6"/>
<path d="M128.469 13.9171V14.7485C128.469 14.8602 128.42 14.9719 128.296 14.9719C128.184 14.9719 128.149 14.8868 128.149 14.7627V13.9171H128.016V14.7308C128.016 14.9808 128.085 15.0872 128.248 15.0872C128.379 15.0872 128.441 15.0038 128.469 14.94V15.0375C128.469 15.2113 128.434 15.3088 128.273 15.3088H128.055V15.424H128.278C128.555 15.424 128.602 15.284 128.602 15.0375V13.9171H128.469Z" fill="#C6C6C6"/>
<path d="M128.136 20.3878V15.9556H127.249V21.2742H129.022V20.3878H128.136Z" fill="#C6C6C6"/>
<path d="M131.017 16.842V15.9556H129.244L129.244 21.2742H131.017L131.017 20.3878H130.13V19.0581H131.017V18.1717H130.13V16.842H131.017Z" fill="#C6C6C6"/>
<path d="M135.043 18.109C134.713 17.8301 134.56 17.6809 134.56 17.3047C134.56 17.0582 134.607 16.9285 134.743 16.9285C134.878 16.9285 135.008 17.0009 135.008 17.5068H135.892C135.892 16.3977 135.55 15.9556 134.808 15.9556C134.065 15.9556 133.676 16.455 133.676 17.3047C133.676 18.2841 134.13 18.5954 134.56 18.9781C134.949 19.3284 135.008 19.484 135.008 19.8602C135.008 20.1716 134.973 20.3013 134.808 20.3013C134.643 20.3013 134.56 20.2667 134.56 19.5013H133.676C133.676 20.9997 134.036 21.2742 134.808 21.2742C135.58 21.2742 135.892 20.7748 135.892 19.8602C135.892 18.8808 135.539 18.5241 135.043 18.109Z" fill="#C6C6C6"/>
<path d="M132.606 18.109C132.276 17.8301 132.122 17.6809 132.122 17.3047C132.122 17.0582 132.17 16.9285 132.305 16.9285C132.441 16.9285 132.57 17.0009 132.57 17.5068H133.454C133.454 16.3977 133.113 15.9556 132.37 15.9556C131.627 15.9556 131.238 16.455 131.238 17.3047C131.238 18.2841 131.692 18.5954 132.122 18.9781C132.511 19.3284 132.57 19.484 132.57 19.8602C132.57 20.1716 132.535 20.3013 132.37 20.3013C132.205 20.3013 132.122 20.2667 132.122 19.5013H131.238C131.238 20.9997 131.598 21.2742 132.37 21.2742C133.142 21.2742 133.454 20.7748 133.454 19.8602C133.454 18.8808 133.101 18.5241 132.606 18.109Z" fill="#C6C6C6"/>
<path d="M136.557 21.2741C136.801 21.2741 137 21.1024 137 20.8365C137 20.5594 136.801 20.3877 136.557 20.3877C136.313 20.3877 136.114 20.5594 136.114 20.8365C136.114 21.1024 136.313 21.2741 136.557 21.2741Z" fill="#C6C6C6"/>
<rect opacity="0.8" x="126.939" y="18.8364" width="9.26335" height="0.886445" fill="#F30506"/>
<path d="M34.143 19.0135V3.79262H30.8999V8.61402C30.554 7.83567 29.7973 6.81951 28.3703 6.81951C26.3812 6.81951 26.0137 8.26809 26.0137 11.3166V16.8082C26.0137 19.8567 26.3812 21.3053 28.3703 21.3053C29.7973 21.3053 30.554 20.2891 30.8999 19.5108C30.8999 19.9 31.008 20.7648 31.5485 21.0891H34.3592C34.143 20.3972 34.143 19.9216 34.143 19.0135ZM30.8999 17.0244C30.8999 18.0622 30.6189 18.2784 30.0783 18.2784C29.5378 18.2784 29.2568 18.0622 29.2568 17.0244V11.1004C29.2568 10.0626 29.5378 9.84639 30.0783 9.84639C30.6189 9.84639 30.8999 10.0626 30.8999 11.1004V17.0244Z" fill="#C6C6C6"/>
<path d="M38.8668 6.81951C36.2507 6.81951 34.8021 8.26809 34.8021 11.749V16.3758C34.8021 19.8567 36.2507 21.3053 38.8668 21.3053C41.4829 21.3053 42.9315 19.8567 42.9315 16.3758V15.5758H39.6884V16.3758C39.6884 17.846 39.5803 18.2784 38.8668 18.2784C38.1533 18.2784 38.0452 17.846 38.0452 16.3758V14.711H42.9315V11.749C42.9315 8.26809 41.4829 6.81951 38.8668 6.81951ZM39.6884 12.549H38.0452V11.749C38.0452 10.2788 38.1533 9.84639 38.8668 9.84639C39.5586 9.84639 39.6884 10.2788 39.6884 11.749V12.549Z" fill="#C6C6C6"/>
<path d="M49.0173 12.8949C47.3309 11.6625 46.8336 11.4031 46.8336 10.668C46.8336 10.2788 47.0066 9.84639 47.5039 9.84639C48.0011 9.84639 48.2606 10.2788 48.2606 11.5328H51.5037C51.5037 8.48429 50.2281 6.81951 47.5039 6.81951C44.7797 6.81951 43.5905 8.48429 43.5905 10.668C43.5905 12.9598 44.9526 13.8462 46.2931 14.7759C48.2606 16.138 48.4768 16.592 48.4768 17.2406C48.4768 17.846 48.3471 18.2784 47.7417 18.2784C47.1363 18.2784 46.8336 17.846 46.8336 16.1596H43.5905C43.5905 20.0729 44.9094 21.3053 47.7417 21.3053C50.574 21.3053 51.7199 19.6405 51.7199 17.2406C51.7199 15.057 50.6605 14.1056 49.0173 12.8949Z" fill="#C6C6C6"/>
<path d="M60.7245 19.0135V11.3166C60.7245 8.26809 59.5138 6.81951 56.6815 6.81951C53.8492 6.81951 52.5952 8.26809 52.5952 11.3166V11.749H55.8383V11.3166C55.8383 10.2788 56.0545 9.84639 56.6815 9.84639C57.2652 9.84639 57.4814 10.0626 57.4814 10.8626C57.4598 13.1543 52.379 12.6787 52.379 17.6514C52.379 20.2027 53.6546 21.3053 55.1032 21.3053C56.3355 21.3053 56.9842 20.7432 57.4814 19.5108C57.4814 19.9 57.5895 20.7648 58.1301 21.0891H60.9407C60.7245 20.3972 60.7245 19.9216 60.7245 19.0135ZM57.4814 17.7379C57.2652 17.9974 56.9625 18.2784 56.5301 18.2784C55.9896 18.2784 55.6221 17.9109 55.6221 17.0677C55.6221 15.7488 56.8112 15.3164 57.4814 14.3435V17.7379Z" fill="#C6C6C6"/>
<path d="M67.3624 6.81951C65.9354 6.81951 65.1787 7.83567 64.8328 8.61402V3.79262H61.5897V21.0891H64.8328V11.1004C64.8328 10.0626 65.1138 9.84639 65.6544 9.84639C66.1949 9.84639 66.4759 10.0626 66.4759 11.1004V21.0891H69.719V11.3166C69.719 8.26809 69.3515 6.81951 67.3624 6.81951Z" fill="#C6C6C6"/>
<path d="M71.9997 6.38709C72.8861 6.38709 73.6212 5.7601 73.6212 5.00338C73.6212 4.20341 72.8861 3.57642 71.9997 3.57642C71.1132 3.57642 70.3781 4.20341 70.3781 5.00338C70.3781 5.7601 71.1132 6.38709 71.9997 6.38709ZM70.3781 7.03571V21.0891H73.6212V7.03571H70.3781Z" fill="#C6C6C6"/>
<path d="M74.2681 3.79262V21.0891H77.5112V3.79262H74.2681ZM82.8731 7.03571H79.5219L77.5112 14.0624L79.5219 21.0891H82.8731L80.7327 14.0624L82.8731 7.03571Z" fill="#C6C6C6"/>
<path d="M84.9315 6.38709C85.8179 6.38709 86.553 5.7601 86.553 5.00338C86.553 4.20341 85.8179 3.57642 84.9315 3.57642C84.045 3.57642 83.3099 4.20341 83.3099 5.00338C83.3099 5.7601 84.045 6.38709 84.9315 6.38709ZM83.3099 7.03571V21.0891H86.553V7.03571H83.3099Z" fill="#C6C6C6"/>
<path d="M95.3293 19.0135V3.79262H92.0862V8.61402C91.7403 7.83567 90.9836 6.81951 89.5566 6.81951C87.5675 6.81951 87.2 8.26809 87.2 11.3166V16.8082C87.2 19.8567 87.5675 21.3053 89.5566 21.3053C90.9836 21.3053 91.7403 20.2891 92.0862 19.5108C92.0862 19.9 92.1943 20.7648 92.7348 21.0891H95.5455C95.3293 20.3972 95.3293 19.9216 95.3293 19.0135ZM92.0862 17.0244C92.0862 18.0622 91.8051 18.2784 91.2646 18.2784C90.7241 18.2784 90.4431 18.0622 90.4431 17.0244V11.1004C90.4431 10.0626 90.7241 9.84639 91.2646 9.84639C91.8051 9.84639 92.0862 10.0626 92.0862 11.1004V17.0244Z" fill="#C6C6C6"/>
<path d="M104.334 19.0135V11.3166C104.334 8.26809 103.123 6.81951 100.291 6.81951C97.4586 6.81951 96.2046 8.26809 96.2046 11.3166V11.749H99.4477V11.3166C99.4477 10.2788 99.6639 9.84639 100.291 9.84639C100.875 9.84639 101.091 10.0626 101.091 10.8626C101.069 13.1543 95.9884 12.6787 95.9884 17.6514C95.9884 20.2027 97.264 21.3053 98.7126 21.3053C99.945 21.3053 100.594 20.7432 101.091 19.5108C101.091 19.9 101.199 20.7648 101.739 21.0891H104.55C104.334 20.3972 104.334 19.9216 104.334 19.0135ZM101.091 17.7379C100.875 17.9974 100.572 18.2784 100.14 18.2784C99.599 18.2784 99.2315 17.9109 99.2315 17.0677C99.2315 15.7488 100.421 15.3164 101.091 14.3435V17.7379Z" fill="#C6C6C6"/>
<path d="M110.415 12.8949C108.728 11.6625 108.231 11.4031 108.231 10.668C108.231 10.2788 108.404 9.84639 108.901 9.84639C109.399 9.84639 109.658 10.2788 109.658 11.5328H112.901C112.901 8.48429 111.626 6.81951 108.901 6.81951C106.177 6.81951 104.988 8.48429 104.988 10.668C104.988 12.9598 106.35 13.8462 107.691 14.7759C109.658 16.138 109.874 16.592 109.874 17.2406C109.874 17.846 109.745 18.2784 109.139 18.2784C108.534 18.2784 108.231 17.846 108.231 16.1596H104.988C104.988 20.0729 106.307 21.3053 109.139 21.3053C111.971 21.3053 113.117 19.6405 113.117 17.2406C113.117 15.057 112.058 14.1056 110.415 12.8949Z" fill="#C6C6C6"/>
<path d="M119.549 6.81951C118.122 6.81951 117.365 7.83567 117.019 8.61402V3.79262H113.776V21.0891H117.019V11.1004C117.019 10.0626 117.301 9.84639 117.841 9.84639C118.382 9.84639 118.663 10.0626 118.663 11.1004V21.0891H121.906V11.3166C121.906 8.26809 121.538 6.81951 119.549 6.81951Z" fill="#C6C6C6"/>
<path d="M124.186 6.38709C125.073 6.38709 125.808 5.7601 125.808 5.00338C125.808 4.20341 125.073 3.57642 124.186 3.57642C123.3 3.57642 122.565 4.20341 122.565 5.00338C122.565 5.7601 123.3 6.38709 124.186 6.38709ZM122.565 7.03571V21.0891H125.808V7.03571H122.565Z" fill="#C6C6C6"/>
<path fill-rule="evenodd" clip-rule="evenodd" d="M5.15467 1.71094H17.9219L23.0765 14.0821L20.903 22.7761H2.17349L0 14.0821L5.15467 1.71094ZM6.4357 3.63249L2.45044 13.1971H20.6261L16.6408 3.63249H6.4357ZM20.8367 15.1187H2.23982L3.67379 20.8545H19.4027L20.8367 15.1187Z" fill="#C6C6C6"/>
<path d="M2.02283 15.0964L21.0642 15.0964L19.551 20.9377H3.51083L2.02283 15.0964Z" fill="#C6C6C6"/>
<path d="M8.76477 18.7806C8.76477 18.5154 8.97983 18.3003 9.24511 18.3003H14.1964C14.4616 18.3003 14.6767 18.5154 14.6767 18.7806C14.6767 19.0459 14.4616 19.261 14.1964 19.261H9.24511C8.97983 19.261 8.76477 19.0459 8.76477 18.7806Z" fill="#F30506"/>
<path d="M4.27298 6.45135L3.68143 9.22123C4.17978 9.291 4.95863 9.42067 5.46702 9.52925L10.0426 10.5064C9.64536 11.8514 9.05394 12.9899 8.15309 13.8606C7.2422 14.6926 5.80163 15.4298 4.53346 15.6172L6.64096 17.937C8.40849 17.4713 10.0792 16.3433 10.941 15.2259C11.7917 14.1611 12.5257 12.8698 13.0228 11.1429L16.9497 11.9815C17.4757 12.0939 18.2082 12.2686 18.6741 12.4048L19.2619 9.65244C18.7523 9.63527 17.8682 9.48313 17.5001 9.40451L6.01739 6.95221C5.47393 6.83615 4.80146 6.63754 4.27298 6.45135ZM18.216 3.56334L16.4258 3.87758C16.4835 4.03655 16.555 4.21679 16.609 4.39329C16.0155 4.33986 15.3769 4.24014 14.7984 4.11659L9.24107 2.92975C8.64502 2.80246 7.81477 2.57016 7.23744 2.35521L6.65712 5.07249C7.24313 5.16098 8.0921 5.30563 8.70568 5.43667L14.263 6.6235C14.9291 6.76577 15.6404 6.95434 16.2816 7.12793L16.7683 4.84891C16.9502 5.45602 17.1247 6.09818 17.2553 6.60266L19.0705 6.2571C18.8859 5.57613 18.5157 4.30558 18.216 3.56334ZM20.552 3.18237L18.7618 3.49661C19.0929 4.26387 19.433 5.418 19.6301 6.21164L21.4277 5.86234C21.257 5.20264 20.8655 3.94589 20.552 3.18237Z" fill="#F30506"/>
<path d="M2.82068 13.2285H19.7385V18.0316H2.82068V13.2285Z" fill="#C6C6C6"/>
</svg>
