<svg width="773" height="129" viewBox="0 0 773 129" fill="none" xmlns="http://www.w3.org/2000/svg">
<path d="M720.1 78.4C719.36 78.4 719.01 78.87 718.85 79.23V77H718.1V84.04C718.1 84.46 718.1 84.68 718 85H718.7C718.8 84.85 718.85 84.45 718.85 84.27C719.01 84.63 719.36 85.1 720.1 85.1C721.02 85.1 721.41 84.5 721.41 83.09V80.4C721.41 78.99 721.02 78.4 720.1 78.4ZM720.66 83.27C720.66 83.97 720.46 84.45 719.83 84.45C719.13 84.45 718.85 83.82 718.85 83.19V80.3C718.85 79.67 719.13 79.05 719.83 79.05C720.46 79.05 720.66 79.52 720.66 80.23V83.27Z" fill="#12142D"/>
<path d="M724.633 78.5V83.19C724.633 83.82 724.353 84.45 723.653 84.45C723.023 84.45 722.823 83.97 722.823 83.27V78.5H722.073V83.09C722.073 84.5 722.463 85.1 723.383 85.1C724.123 85.1 724.473 84.63 724.633 84.27V84.82C724.633 85.8 724.433 86.35 723.523 86.35H722.293V87H723.553C725.113 87 725.383 86.21 725.383 84.82V78.5H724.633Z" fill="#12142D"/>
<path d="M722.75 115V90H717.75V120H727.75V115H722.75Z" fill="#12142D"/>
<path d="M739 95V90H729L729 120H739L739 115H734V107.5H739V102.5H734V95H739Z" fill="#12142D"/>
<path d="M761.713 102.146C759.851 100.573 758.987 99.7317 758.987 97.6098C758.987 96.2195 759.253 95.4878 760.017 95.4878C760.782 95.4878 761.513 95.8963 761.513 98.75H766.5C766.5 92.4939 764.572 90 760.383 90C756.194 90 754 92.8171 754 97.6098C754 103.134 756.56 104.89 758.987 107.049C761.181 109.024 761.513 109.902 761.513 112.024C761.513 113.78 761.314 114.512 760.383 114.512C759.452 114.512 758.987 114.317 758.987 110H754C754 118.451 756.028 120 760.383 120C764.738 120 766.5 117.183 766.5 112.024C766.5 106.5 764.505 104.488 761.713 102.146Z" fill="#12142D"/>
<path d="M747.963 102.146C746.101 100.573 745.237 99.7317 745.237 97.6098C745.237 96.2195 745.503 95.4878 746.267 95.4878C747.032 95.4878 747.763 95.8963 747.763 98.75H752.75C752.75 92.4939 750.822 90 746.633 90C742.444 90 740.25 92.8171 740.25 97.6098C740.25 103.134 742.81 104.89 745.237 107.049C747.431 109.024 747.763 109.902 747.763 112.024C747.763 113.78 747.564 114.512 746.633 114.512C745.702 114.512 745.237 114.317 745.237 110H740.25C740.25 118.451 742.278 120 746.633 120C750.988 120 752.75 117.183 752.75 112.024C752.75 106.5 750.755 104.488 747.963 102.146Z" fill="#12142D"/>
<path d="M770.25 120C771.625 120 772.75 119.031 772.75 117.531C772.75 115.969 771.625 115 770.25 115C768.875 115 767.75 115.969 767.75 117.531C767.75 119.031 768.875 120 770.25 120Z" fill="#12142D"/>
<rect opacity="0.8" x="716" y="106.25" width="52.25" height="5" fill="#F30506"/>
<path d="M192.583 107.246V21.3926H174.29V48.5877C172.339 44.1975 168.071 38.4658 160.022 38.4658C148.803 38.4658 146.729 46.6365 146.729 63.8316V94.8072C146.729 112.002 148.803 120.173 160.022 120.173C168.071 120.173 172.339 114.441 174.29 110.051C174.29 112.246 174.9 117.124 177.949 118.954H193.803C192.583 115.051 192.583 112.368 192.583 107.246ZM174.29 96.0268C174.29 101.88 172.705 103.1 169.656 103.1C166.607 103.1 165.022 101.88 165.022 96.0268V62.6121C165.022 56.7585 166.607 55.539 169.656 55.539C172.705 55.539 174.29 56.7585 174.29 62.6121V96.0268Z" fill="#12142D"/>
<path d="M219.227 38.4658C204.471 38.4658 196.301 46.6365 196.301 66.2707V92.3682C196.301 112.002 204.471 120.173 219.227 120.173C233.984 120.173 242.154 112.002 242.154 92.3682V87.856H223.862V92.3682C223.862 100.661 223.252 103.1 219.227 103.1C215.203 103.1 214.593 100.661 214.593 92.3682V82.978H242.154V66.2707C242.154 46.6365 233.984 38.4658 219.227 38.4658ZM223.862 70.7829H214.593V66.2707C214.593 57.978 215.203 55.539 219.227 55.539C223.13 55.539 223.862 57.978 223.862 66.2707V70.7829Z" fill="#12142D"/>
<path d="M276.482 72.7341C266.969 65.7829 264.165 64.3194 264.165 60.1731C264.165 57.978 265.14 55.539 267.945 55.539C270.75 55.539 272.213 57.978 272.213 65.0511H290.506C290.506 47.856 283.311 38.4658 267.945 38.4658C252.579 38.4658 245.872 47.856 245.872 60.1731C245.872 73.0999 253.555 78.0999 261.116 83.3438C272.213 91.0268 273.433 93.5877 273.433 97.2463C273.433 100.661 272.701 103.1 269.287 103.1C265.872 103.1 264.165 100.661 264.165 91.1487H245.872C245.872 113.222 253.311 120.173 269.287 120.173C285.262 120.173 291.726 110.783 291.726 97.2463C291.726 84.9292 285.75 79.5633 276.482 72.7341Z" fill="#12142D"/>
<path d="M342.516 107.246V63.8316C342.516 46.6365 335.687 38.4658 319.711 38.4658C303.736 38.4658 296.663 46.6365 296.663 63.8316V66.2707H314.955V63.8316C314.955 57.978 316.175 55.539 319.711 55.539C323.004 55.539 324.224 56.7585 324.224 61.2707C324.102 74.1975 295.443 71.5146 295.443 99.5633C295.443 113.954 302.638 120.173 310.809 120.173C317.76 120.173 321.419 117.002 324.224 110.051C324.224 112.246 324.833 117.124 327.882 118.954H343.736C342.516 115.051 342.516 112.368 342.516 107.246ZM324.224 100.051C323.004 101.515 321.297 103.1 318.858 103.1C315.809 103.1 313.736 101.027 313.736 96.2707C313.736 88.8316 320.443 86.3926 324.224 80.9048V100.051Z" fill="#12142D"/>
<path d="M379.957 38.4658C371.908 38.4658 367.64 44.1975 365.689 48.5877V21.3926H347.396V118.954H365.689V62.6121C365.689 56.7585 367.274 55.539 370.323 55.539C373.372 55.539 374.957 56.7585 374.957 62.6121V118.954H393.25V63.8316C393.25 46.6365 391.177 38.4658 379.957 38.4658Z" fill="#12142D"/>
<path d="M406.114 36.0268C411.114 36.0268 415.26 32.4902 415.26 28.2219C415.26 23.7097 411.114 20.1731 406.114 20.1731C401.114 20.1731 396.968 23.7097 396.968 28.2219C396.968 32.4902 401.114 36.0268 406.114 36.0268ZM396.968 39.6853V118.954H415.26V39.6853H396.968Z" fill="#12142D"/>
<path d="M418.909 21.3926V118.954H437.202V21.3926H418.909ZM467.446 39.6853H448.543L437.202 79.3194L448.543 118.954H467.446L455.373 79.3194L467.446 39.6853Z" fill="#12142D"/>
<path d="M479.056 36.0268C484.056 36.0268 488.202 32.4902 488.202 28.2219C488.202 23.7097 484.056 20.1731 479.056 20.1731C474.056 20.1731 469.91 23.7097 469.91 28.2219C469.91 32.4902 474.056 36.0268 479.056 36.0268ZM469.91 39.6853V118.954H488.202V39.6853H469.91Z" fill="#12142D"/>
<path d="M537.705 107.246V21.3926H519.412V48.5877C517.461 44.1975 513.193 38.4658 505.144 38.4658C493.924 38.4658 491.851 46.6365 491.851 63.8316V94.8072C491.851 112.002 493.924 120.173 505.144 120.173C513.193 120.173 517.461 114.441 519.412 110.051C519.412 112.246 520.022 117.124 523.071 118.954H538.924C537.705 115.051 537.705 112.368 537.705 107.246ZM519.412 96.0268C519.412 101.88 517.827 103.1 514.778 103.1C511.729 103.1 510.144 101.88 510.144 96.0268V62.6121C510.144 56.7585 511.729 55.539 514.778 55.539C517.827 55.539 519.412 56.7585 519.412 62.6121V96.0268Z" fill="#12142D"/>
<path d="M588.496 107.246V63.8316C588.496 46.6365 581.666 38.4658 565.691 38.4658C549.715 38.4658 542.642 46.6365 542.642 63.8316V66.2707H560.935V63.8316C560.935 57.978 562.154 55.539 565.691 55.539C568.984 55.539 570.203 56.7585 570.203 61.2707C570.081 74.1975 541.423 71.5146 541.423 99.5633C541.423 113.954 548.618 120.173 556.788 120.173C563.74 120.173 567.398 117.002 570.203 110.051C570.203 112.246 570.813 117.124 573.862 118.954H589.715C588.496 115.051 588.496 112.368 588.496 107.246ZM570.203 100.051C568.984 101.515 567.276 103.1 564.837 103.1C561.788 103.1 559.715 101.027 559.715 96.2707C559.715 88.8316 566.423 86.3926 570.203 80.9048V100.051Z" fill="#12142D"/>
<path d="M622.795 72.7341C613.282 65.7829 610.477 64.3194 610.477 60.1731C610.477 57.978 611.453 55.539 614.258 55.539C617.063 55.539 618.526 57.978 618.526 65.0511H636.819C636.819 47.856 629.624 38.4658 614.258 38.4658C598.892 38.4658 592.185 47.856 592.185 60.1731C592.185 73.0999 599.868 78.0999 607.429 83.3438C618.526 91.0268 619.746 93.5877 619.746 97.2463C619.746 100.661 619.014 103.1 615.599 103.1C612.185 103.1 610.477 100.661 610.477 91.1487H592.185C592.185 113.222 599.624 120.173 615.599 120.173C631.575 120.173 638.038 110.783 638.038 97.2463C638.038 84.9292 632.063 79.5633 622.795 72.7341Z" fill="#12142D"/>
<path d="M674.317 38.4658C666.268 38.4658 662 44.1975 660.049 48.5877V21.3926H641.756V118.954H660.049V62.6121C660.049 56.7585 661.634 55.539 664.683 55.539C667.732 55.539 669.317 56.7585 669.317 62.6121V118.954H687.61V63.8316C687.61 46.6365 685.537 38.4658 674.317 38.4658Z" fill="#12142D"/>
<path d="M700.474 36.0268C705.474 36.0268 709.62 32.4902 709.62 28.2219C709.62 23.7097 705.474 20.1731 700.474 20.1731C695.474 20.1731 691.327 23.7097 691.327 28.2219C691.327 32.4902 695.474 36.0268 700.474 36.0268ZM691.327 39.6853V118.954H709.62V39.6853H691.327Z" fill="#12142D"/>
<path fill-rule="evenodd" clip-rule="evenodd" d="M29.0749 9.65088H101.088L130.163 79.4307L117.904 128.469H12.2596L0 79.4307L29.0749 9.65088ZM36.3006 20.4894L13.8217 74.4387H116.342L93.8628 20.4894H36.3006ZM117.53 85.2772H12.6337L20.7221 117.631H109.441L117.53 85.2772Z" fill="#12142D"/>
<path d="M11.4095 85.1521L118.812 85.1521L110.277 118.1H19.8026L11.4095 85.1521Z" fill="#12142D"/>
<path d="M49.4379 105.934C49.4379 104.437 50.6509 103.224 52.1472 103.224H80.0748C81.5712 103.224 82.7842 104.437 82.7842 105.934C82.7842 107.43 81.5712 108.643 80.0748 108.643H52.1472C50.6509 108.643 49.4379 107.43 49.4379 105.934Z" fill="white"/>
<path d="M24.1025 36.3889L20.7659 52.0125C23.5769 52.406 27.9699 53.1374 30.8376 53.7498L56.646 59.2616C54.4055 66.8478 51.0696 73.2694 45.9883 78.1811C40.8504 82.8738 32.7249 87.0319 25.5718 88.0891L37.4591 101.174C47.4289 98.547 56.8523 92.1846 61.7137 85.882C66.5118 79.8759 70.6522 72.5921 73.4561 62.8516L95.6059 67.582C98.5724 68.2156 102.704 69.2014 105.332 69.9694L108.647 54.4447C105.773 54.3478 100.787 53.4897 98.7103 53.0462L33.9419 39.214C30.8765 38.5594 27.0834 37.4391 24.1025 36.3889ZM102.748 20.0991L92.6507 21.8715C92.9762 22.7682 93.3794 23.7849 93.6838 24.7804C90.3362 24.479 86.7341 23.9166 83.471 23.2197L52.1251 16.5253C48.7631 15.8073 44.08 14.497 40.8236 13.2846L37.5503 28.6114C40.8557 29.1106 45.6443 29.9264 49.1052 30.6656L80.4511 37.3599C84.2087 38.1624 88.2207 39.226 91.8371 40.2051L94.5824 27.3504C95.6088 30.7747 96.5929 34.3969 97.3293 37.2424L107.568 35.2932C106.527 31.4522 104.439 24.2857 102.748 20.0991ZM115.924 17.9502L105.827 19.7227C107.694 24.0504 109.613 30.5603 110.724 35.0368L120.864 33.0666C119.901 29.3456 117.693 22.2568 115.924 17.9502Z" fill="#F30506"/>
<path d="M15.9098 74.6162H111.335V101.708H15.9098V74.6162Z" fill="#12142D"/>
</svg>
