<svg width="18" height="19" viewBox="0 0 18 19" fill="none" xmlns="http://www.w3.org/2000/svg">
<path d="M8.99887 0.339844C6.55256 0.339844 6.24769 0.351656 5.29031 0.392156C4.329 0.439406 3.67875 0.588469 3.105 0.811219C2.50451 1.03792 1.96069 1.39285 1.51144 1.85128C1.05173 2.29948 0.696598 2.84361 0.471375 3.44484C0.248625 4.01859 0.0995625 4.66884 0.0523125 5.63016C0.009 6.58809 0 6.89241 0 9.33872C0 11.785 0.0118125 12.0899 0.0523125 13.0473C0.0995625 14.0058 0.248625 14.6588 0.471375 15.2326C0.698074 15.8331 1.05301 16.3769 1.51144 16.8262C1.95964 17.2859 2.50376 17.641 3.105 17.8662C3.67875 18.0862 4.33181 18.238 5.29031 18.2853C6.24825 18.3286 6.55256 18.3376 8.99887 18.3376C11.4452 18.3376 11.7501 18.3258 12.7074 18.2853C13.6659 18.238 14.319 18.0856 14.8927 17.8662C15.4932 17.6395 16.0371 17.2846 16.4863 16.8262C16.9466 16.3784 17.3018 15.8342 17.5264 15.2326C17.7463 14.6588 17.8982 14.0058 17.9454 13.0473C17.9888 12.0893 17.9977 11.785 17.9977 9.33872C17.9977 6.89241 17.9859 6.58753 17.9454 5.63016C17.8982 4.67166 17.7457 4.01522 17.5264 3.44484C17.2997 2.84435 16.9447 2.30053 16.4863 1.85128C16.0386 1.39098 15.4943 1.03576 14.8927 0.811219C14.319 0.588469 13.6659 0.439406 12.7074 0.392156C11.7495 0.348844 11.4452 0.339844 8.99887 0.339844ZM8.99887 1.95984C11.4013 1.95984 11.6882 1.97166 12.6377 2.01216C13.5135 2.05322 13.9905 2.19947 14.3072 2.32322C14.6987 2.46774 15.0531 2.69776 15.3444 2.99653C15.6427 3.28668 15.8719 3.64023 16.0149 4.03097C16.1387 4.34766 16.2849 4.82466 16.326 5.70047C16.3665 6.64997 16.3783 6.93741 16.3783 9.33928C16.3783 11.7412 16.3665 12.0286 16.3226 12.9781C16.2754 13.8539 16.1291 14.3309 16.0059 14.6476C15.8355 15.07 15.6454 15.3653 15.3315 15.6848C15.0391 15.9817 14.685 16.2107 14.2942 16.3553C13.9815 16.4791 13.4977 16.6253 12.6186 16.6664C11.664 16.7069 11.3828 16.7187 8.97412 16.7187C6.5655 16.7187 6.28481 16.7069 5.32912 16.663C4.45331 16.6158 3.97013 16.4695 3.65344 16.3463C3.22594 16.1759 2.93288 15.9858 2.619 15.6719C2.30231 15.3552 2.10094 15.0537 1.94569 14.6347C1.81969 14.3219 1.67569 13.8382 1.629 12.959C1.59694 12.0157 1.58175 11.7232 1.58175 9.32578C1.58175 6.92953 1.59694 6.63647 1.629 5.68134C1.67569 4.80216 1.81969 4.31953 1.94569 4.00566C2.10094 3.57759 2.30288 3.28509 2.619 2.96841C2.93231 2.65509 3.22594 2.45259 3.65344 2.29397C3.97013 2.17078 4.4415 2.02453 5.32069 1.98066C6.27525 1.94634 6.5565 1.93397 8.96175 1.93397L8.99887 1.95984ZM8.99887 4.72003C8.39213 4.71981 7.79129 4.83915 7.23069 5.07124C6.67009 5.30333 6.16071 5.64362 5.73168 6.07265C5.30265 6.50168 4.96236 7.01105 4.73027 7.57166C4.49818 8.13226 4.37884 8.7331 4.37906 9.33984C4.37884 9.94659 4.49818 10.5474 4.73027 11.108C4.96236 11.6686 5.30265 12.178 5.73168 12.607C6.16071 13.0361 6.67009 13.3764 7.23069 13.6084C7.79129 13.8405 8.39213 13.9599 8.99887 13.9597C9.60562 13.9599 10.2065 13.8405 10.7671 13.6084C11.3277 13.3764 11.837 13.0361 12.2661 12.607C12.6951 12.178 13.0354 11.6686 13.2675 11.108C13.4996 10.5474 13.6189 9.94659 13.6187 9.33984C13.6189 8.7331 13.4996 8.13226 13.2675 7.57166C13.0354 7.01105 12.6951 6.50168 12.2661 6.07265C11.837 5.64362 11.3277 5.30333 10.7671 5.07124C10.2065 4.83915 9.60562 4.71981 8.99887 4.72003ZM8.99887 12.3397C7.34063 12.3397 5.99906 10.9981 5.99906 9.33984C5.99906 7.68159 7.34063 6.34003 8.99887 6.34003C10.6571 6.34003 11.9987 7.68159 11.9987 9.33984C11.9987 10.9981 10.6571 12.3397 8.99887 12.3397ZM14.8849 4.53553C14.8846 4.82222 14.7705 5.09706 14.5677 5.29967C14.3648 5.50229 14.0899 5.61609 13.8032 5.61609C13.6614 5.61609 13.5211 5.58817 13.3901 5.53393C13.2591 5.47968 13.1401 5.40017 13.0399 5.29993C12.9397 5.1997 12.8602 5.0807 12.8059 4.94974C12.7517 4.81878 12.7237 4.67841 12.7237 4.53666C12.7237 4.3949 12.7517 4.25454 12.8059 4.12357C12.8602 3.99261 12.9397 3.87361 13.0399 3.77338C13.1401 3.67314 13.2591 3.59363 13.3901 3.53939C13.5211 3.48514 13.6614 3.45722 13.8032 3.45722C14.3977 3.45722 14.8849 3.94097 14.8849 4.53553Z" fill="#12142D"/>
</svg>
