<svg width="13" height="13" viewBox="0 0 13 13" fill="none" xmlns="http://www.w3.org/2000/svg">
<path d="M6.08513 2.83472C5.97146 2.83472 5.86245 2.87987 5.78208 2.96024C5.70171 3.04062 5.65655 3.14962 5.65655 3.26329C5.65655 3.37695 5.70171 3.48596 5.78208 3.56633C5.86245 3.64671 5.97146 3.69186 6.08513 3.69186H8.46541L4.91084 7.24557C4.87099 7.28542 4.83939 7.33273 4.81782 7.38479C4.79626 7.43685 4.78516 7.49265 4.78516 7.549C4.78516 7.60535 4.79626 7.66115 4.81782 7.71322C4.83939 7.76528 4.87099 7.81258 4.91084 7.85243C4.95069 7.89228 4.99799 7.92389 5.05005 7.94545C5.10212 7.96702 5.15792 7.97812 5.21427 7.97812C5.27062 7.97812 5.32642 7.96702 5.37848 7.94545C5.43055 7.92389 5.47785 7.89228 5.5177 7.85243L9.07141 4.29786V6.67815C9.07141 6.79181 9.11656 6.90082 9.19694 6.98119C9.27731 7.06156 9.38632 7.10672 9.49998 7.10672C9.61365 7.10672 9.72266 7.06156 9.80303 6.98119C9.8834 6.90082 9.92856 6.79181 9.92856 6.67815V3.26329C9.92856 3.14962 9.8834 3.04062 9.80303 2.96024C9.72266 2.87987 9.61365 2.83472 9.49998 2.83472H6.08513Z" fill="#333333"/>
<path d="M8.87086 12.2632C9.38133 12.2633 9.87508 12.0812 10.2632 11.7496C10.6513 11.4181 10.9084 10.9588 10.988 10.4546C11.4259 10.3196 11.809 10.0478 12.0811 9.67912C12.3532 9.31044 12.5 8.86427 12.5 8.40604V2.40604C12.5 1.83772 12.2742 1.29268 11.8724 0.890812C11.4705 0.488948 10.9255 0.263184 10.3571 0.263184H4.35714C3.89386 0.26316 3.44303 0.413222 3.07218 0.690897C2.70133 0.968572 2.43041 1.35892 2.3 1.80347C1.79749 1.88492 1.34039 2.14261 1.01057 2.53038C0.68075 2.91816 0.499754 3.41069 0.5 3.91975V9.26318C0.5 10.0588 0.816071 10.8219 1.37868 11.3845C1.94129 11.9471 2.70435 12.2632 3.5 12.2632H8.87086ZM1.35714 3.91975C1.35683 3.65361 1.43911 3.39394 1.59263 3.17654C1.74616 2.95915 1.96337 2.79475 2.21429 2.70604V8.40604C2.21429 8.97436 2.44005 9.51941 2.84191 9.92127C3.24378 10.3231 3.78882 10.5489 4.35714 10.5489H10.0829C9.99424 10.7995 9.83011 11.0166 9.61306 11.1701C9.396 11.3236 9.1367 11.406 8.87086 11.406H3.5C2.93168 11.406 2.38664 11.1803 1.98477 10.7784C1.58291 10.3765 1.35714 9.8315 1.35714 9.26318V3.91975ZM4.35714 1.12033H10.3571C10.6981 1.12033 11.0252 1.25579 11.2663 1.4969C11.5074 1.73802 11.6429 2.06505 11.6429 2.40604V8.40604C11.6429 8.74703 11.5074 9.07406 11.2663 9.31518C11.0252 9.5563 10.6981 9.69176 10.3571 9.69176H4.35714C4.01615 9.69176 3.68912 9.5563 3.44801 9.31518C3.20689 9.07406 3.07143 8.74703 3.07143 8.40604V2.40604C3.07143 2.06505 3.20689 1.73802 3.44801 1.4969C3.68912 1.25579 4.01615 1.12033 4.35714 1.12033Z" fill="#333333"/>
</svg>
