<svg width="24" height="24" viewBox="0 0 24 24" fill="none" xmlns="http://www.w3.org/2000/svg">
<rect opacity="0.8" width="24" height="24" fill="white"/>
<path fill-rule="evenodd" clip-rule="evenodd" d="M3.60002 12C3.60002 14.2278 4.48502 16.3644 6.06033 17.9397C7.63563 19.515 9.77221 20.4 12 20.4C14.2278 20.4 16.3644 19.515 17.9397 17.9397C19.515 16.3644 20.4 14.2278 20.4 12C20.4 9.77221 19.515 7.63563 17.9397 6.06033C16.3644 4.48502 14.2278 3.60002 12 3.60002C9.77221 3.60002 7.63563 4.48502 6.06033 6.06033C4.48502 7.63563 3.60002 9.77221 3.60002 12V12ZM21.6 12C21.6 14.5461 20.5886 16.9879 18.7883 18.7883C16.9879 20.5886 14.5461 21.6 12 21.6C9.45395 21.6 7.01215 20.5886 5.2118 18.7883C3.41145 16.9879 2.40002 14.5461 2.40002 12C2.40002 9.45395 3.41145 7.01215 5.2118 5.2118C7.01215 3.41145 9.45395 2.40002 12 2.40002C14.5461 2.40002 16.9879 3.41145 18.7883 5.2118C20.5886 7.01215 21.6 9.45395 21.6 12V12ZM7.80002 11.4C7.64089 11.4 7.48828 11.4632 7.37576 11.5758C7.26324 11.6883 7.20002 11.8409 7.20002 12C7.20002 12.1592 7.26324 12.3118 7.37576 12.4243C7.48828 12.5368 7.64089 12.6 7.80002 12.6H14.7516L12.1752 15.1752C12.1194 15.231 12.0752 15.2972 12.045 15.3701C12.0148 15.443 11.9993 15.5211 11.9993 15.6C11.9993 15.6789 12.0148 15.757 12.045 15.8299C12.0752 15.9028 12.1194 15.969 12.1752 16.0248C12.231 16.0806 12.2972 16.1249 12.3701 16.1551C12.443 16.1852 12.5211 16.2008 12.6 16.2008C12.6789 16.2008 12.757 16.1852 12.8299 16.1551C12.9028 16.1249 12.969 16.0806 13.0248 16.0248L16.6248 12.4248C16.6807 12.3691 16.725 12.3029 16.7553 12.23C16.7855 12.1571 16.8011 12.0789 16.8011 12C16.8011 11.9211 16.7855 11.843 16.7553 11.7701C16.725 11.6972 16.6807 11.631 16.6248 11.5752L13.0248 7.97522C12.969 7.91944 12.9028 7.87519 12.8299 7.845C12.757 7.81481 12.6789 7.79927 12.6 7.79927C12.5211 7.79927 12.443 7.81481 12.3701 7.845C12.2972 7.87519 12.231 7.91944 12.1752 7.97522C12.1194 8.03101 12.0752 8.09724 12.045 8.17012C12.0148 8.24301 11.9993 8.32113 11.9993 8.40002C11.9993 8.47892 12.0148 8.55704 12.045 8.62993C12.0752 8.70281 12.1194 8.76904 12.1752 8.82482L14.7516 11.4H7.80002Z" fill="#333333"/>
</svg>
