<svg width="19" height="19" viewBox="0 0 19 19" fill="none" xmlns="http://www.w3.org/2000/svg">
<path d="M0.0273438 9.33984C0.0273438 13.1821 2.43559 16.4626 5.82484 17.7533C5.74234 17.0506 5.65459 15.8918 5.84359 15.0788C6.00634 14.3798 6.89434 10.6253 6.89434 10.6253C6.89434 10.6253 6.62659 10.0891 6.62659 9.29484C6.62659 8.04984 7.34809 7.11984 8.24734 7.11984C9.01234 7.11984 9.38134 7.69359 9.38134 8.38134C9.38134 9.15009 8.89159 10.2991 8.63884 11.3648C8.42809 12.2566 9.08659 12.9841 9.96559 12.9841C11.5578 12.9841 12.7826 11.3048 12.7826 8.88084C12.7826 6.73509 11.2406 5.23584 9.03934 5.23584C6.49084 5.23584 4.99459 7.14759 4.99459 9.12384C4.99459 9.89409 5.29084 10.7191 5.66134 11.1683C5.69293 11.2023 5.71525 11.2438 5.72615 11.2888C5.73706 11.3339 5.73617 11.381 5.72359 11.4256C5.65534 11.7091 5.50384 12.3173 5.47459 12.4418C5.43484 12.6053 5.34484 12.6406 5.17459 12.5611C4.05559 12.0406 3.35659 10.4048 3.35659 9.09084C3.35659 6.26409 5.40934 3.66909 9.27559 3.66909C12.3836 3.66909 14.7993 5.88384 14.7993 8.84334C14.7993 11.9311 12.8531 14.4166 10.1501 14.4166C9.24184 14.4166 8.38909 13.9441 8.09659 13.3868C8.09659 13.3868 7.64734 15.0983 7.53859 15.5168C7.32709 16.3298 6.74059 17.3588 6.37684 17.9431C7.21534 18.2011 8.10484 18.3398 9.02734 18.3398C13.9976 18.3398 18.0273 14.3101 18.0273 9.33984C18.0273 4.36959 13.9976 0.339844 9.02734 0.339844C4.05709 0.339844 0.0273438 4.36959 0.0273438 9.33984Z" fill="#12142D"/>
</svg>
