<svg width="19" height="15" viewBox="0 0 19 15" fill="none" xmlns="http://www.w3.org/2000/svg">
<path d="M18.0273 2.48198C17.4011 2.75948 16.7283 2.94698 16.0211 3.03173C16.7508 2.59508 17.2968 1.90783 17.5571 1.09823C16.8714 1.50547 16.1211 1.79213 15.3386 1.94573C14.8123 1.38388 14.1153 1.01148 13.3558 0.886338C12.5962 0.761199 11.8166 0.890326 11.138 1.25367C10.4593 1.61702 9.91963 2.19425 9.60267 2.89576C9.2857 3.59727 9.2092 4.3838 9.38505 5.13323C7.99582 5.06348 6.63677 4.70239 5.39612 4.07341C4.15547 3.44443 3.06093 2.5616 2.18355 1.48223C1.88355 1.99973 1.71105 2.59973 1.71105 3.23873C1.71072 3.81398 1.85238 4.38041 2.12346 4.88778C2.39455 5.39515 2.78667 5.82776 3.26505 6.14723C2.71026 6.12958 2.16771 5.97967 1.68255 5.70998V5.75498C1.6825 6.56179 1.96158 7.34377 2.47244 7.96823C2.9833 8.59269 3.69448 9.02118 4.4853 9.18098C3.97064 9.32027 3.43106 9.34079 2.9073 9.24098C3.13043 9.93519 3.56505 10.5423 4.15033 10.9772C4.73561 11.4121 5.44224 11.6531 6.1713 11.6665C4.93368 12.638 3.40522 13.165 1.8318 13.1627C1.55309 13.1628 1.27461 13.1465 0.997803 13.114C2.59491 14.1409 4.45406 14.6858 6.3528 14.6837C12.7803 14.6837 16.2941 9.36023 16.2941 4.74323C16.2941 4.59323 16.2903 4.44173 16.2836 4.29173C16.967 3.79746 17.557 3.1854 18.0258 2.48423L18.0273 2.48198Z" fill="#12142D"/>
</svg>
